<svg xmlns="http://www.w3.org/2000/svg" viewBox="0 0 512 512">
  <defs>
    <linearGradient id="g" x1="0%" y1="0%" x2="100%" y2="100%">
      <stop offset="0%" stop-color="#264437" />
      <stop offset="100%" stop-color="#6da95d" />
    </linearGradient>
  </defs>
  <rect width="512" height="512" rx="128" fill="url(#g)" />
  <circle cx="392" cy="122" r="48" fill="rgba(255,255,255,0.12)" />
  <path
    d="M154 120c47 0 89 24 114 62 25-38 67-62 114-62 0 67-34 122-89 151-5 3-9 9-9 15v62H228v-62c0-6-4-12-9-15-55-29-89-84-89-151h24z"
    fill="#f6f0e6"
  />
  <path
    d="M110 310h232c15 0 28 13 28 28v38H96v-52c0-8 6-14 14-14zm22 66h30a28 28 0 1 1 0 56 28 28 0 0 1 0-56zm182 0h30a28 28 0 1 1 0 56 28 28 0 0 1 0-56z"
    fill="#f0b768"
  />
  <path
    d="M290 286h74c27 0 50 20 54 47l6 43h-38c0-30-24-54-54-54h-42v-36zm-34-118c18-19 47-42 88-42-8 47-31 83-63 106-18 12-25 21-25 46v16h-16v-16c0-25-7-34-25-46-32-23-55-59-63-106 41 0 70 23 88 42l8 8 8-8z"
    fill="#d9efe0"
  />
</svg>
